<?xml version="1.0" encoding="UTF-8"?>
<!-- Generator: https://ezgif.com/png-to-svg -->
<svg version="1.1" xmlns="http://www.w3.org/2000/svg" width="200" height="200">
<path d="M0 0 C2.71 1.82 4.54 3.07 6 6 C6.56 10.63 6.64 13.98 4.12 18 C2 20 2 20 0 21 C-0.41 23.91 -0.64 26.09 1.11 28.57 C2.66 30.18 4.27 31.69 5.94 33.19 C11.25 38.08 13.01 40.89 13.56 48.19 C13.65 49.27 13.73 50.36 13.82 51.48 C13.88 52.31 13.94 53.14 14 54 C17.68 53.4 21.34 52.74 25 52 C24.95 50.76 24.91 49.51 24.86 48.23 C24.51 34.83 25.59 24.3 35 14 C44.25 5.15 54.78 2.46 67.34 2.69 C77.36 3.54 86.66 7 94 14 C102.08 24.33 104.74 35.01 104 48 C103.7 49.34 103.38 50.68 103 52 C103.61 52.2 104.23 52.41 104.86 52.62 C108.24 53.75 111.62 54.87 115 56 C115.02 55.17 115.04 54.35 115.06 53.5 C116.65 47.59 121.07 43.61 125.7 39.75 C128.65 36.22 128.75 33.41 128.62 29 C128.64 28.3 128.66 27.6 128.68 26.88 C128.65 22.87 128.17 21.2 125.52 18.12 C124.69 17.42 123.86 16.72 123 16 C121.45 12.89 121.71 10.44 122 7 C123.73 3.6 125.07 1.58 128.31 -0.44 C131.9 -1.19 134.44 -0.89 138 0 C140.71 1.82 142.54 3.07 144 6 C144.53 9.81 144.83 13.47 142.95 16.93 C141.62 18.56 141.62 18.56 139 21 C138.34 21 137.68 21 137 21 C137.15 22.22 137.3 23.44 137.46 24.7 C137.58 26.36 137.7 28.02 137.81 29.69 C137.92 30.48 138.03 31.28 138.14 32.1 C138.3 35.17 138.12 37.11 137 40 C135.01 42.1 132.75 43.89 130.53 45.75 C125.33 50.31 123.19 53.88 122.6 60.83 C122.45 65.67 122.53 70.47 122.69 75.31 C122.7 77.32 122.72 79.34 122.72 81.35 C122.75 86.24 122.85 91.12 123 96 C129.28 92.33 136.5 87.45 138.91 80.3 C139.17 78.6 139.4 76.9 139.61 75.2 C140 73 140 73 142.12 69.94 C145.75 67.5 148.63 66.55 153 67 C156.8 68.97 158.63 70.44 161 74 C161.27 76.12 161.27 76.12 161.25 78.44 C161.26 79.58 161.26 79.58 161.27 80.75 C160.85 84.28 159.69 86.38 157.06 88.75 C153.67 90.14 152.53 89.84 149 89.38 C144.7 89.18 142.59 90.05 139.46 92.85 C137.1 95.17 134.87 97.59 132.65 100.06 C130 103 130 103 128 104 C125.67 104.04 123.33 104.04 121 104 C120.67 106.31 120.34 108.62 120 111 C121.73 110.78 121.73 110.78 123.5 110.56 C129.36 110.58 132.08 114.05 136 118 C136.83 118.68 137.65 119.35 138.5 120.05 C144.72 125.37 144.72 125.37 145.57 130.24 C145.56 133.22 145.4 136.06 145 139 C145.63 139.31 146.25 139.61 146.89 139.93 C149.26 141.13 150.47 141.81 152 144 C153.04 148.54 153.37 150.9 151.88 155.31 C149.76 158.35 148.42 159.6 145 161 C140.72 161.54 138.55 161.28 134.69 159.31 C131.78 156.81 130.76 155.73 130 152 C129.85 147.3 130.43 144.71 133.44 141 C136 139 136 139 138 139 C138.27 134.2 137.72 131.96 134.8 128.05 C130.82 123.62 127.02 119.48 120.81 118.81 C118.93 118.91 118.93 118.91 117 119 C116.9 119.71 116.81 120.42 116.71 121.15 C112.04 139.87 89.49 155.18 74.38 165.31 C73.52 165.9 73.52 165.9 72.66 166.5 C70.26 168.04 68.47 168.99 65.6 169.06 C61.7 167.47 58.46 165.15 55.06 162.69 C54.32 162.15 53.57 161.61 52.8 161.06 C35.79 148.68 22.19 135.74 14 116 C14 115.01 14 114.02 14 113 C11.69 113 9.38 113 7 113 C7.06 113.88 7.13 114.75 7.19 115.66 C8.85 142.25 8.85 142.25 4.5 148.73 C1.05 152.6 -2.56 155.79 -7.89 156.25 C-8.59 156.17 -9.28 156.09 -10 156 C-10.71 153.76 -10.71 153.76 -11 151 C-9.64 148.83 -9.64 148.83 -7.69 146.81 C-7.05 146.14 -6.42 145.46 -5.76 144.77 C-4.51 143.51 -3.26 142.26 -2 141 C-1.69 137.76 -1.69 137.76 -1.73 133.95 C-1.71 132.51 -1.69 131.08 -1.66 129.64 C-1.64 127.38 -1.62 125.12 -1.62 122.86 C-1.61 120.68 -1.58 118.5 -1.54 116.32 C-1.53 114.36 -1.53 114.36 -1.51 112.36 C-0.92 108.5 -0.08 107.32 3 105 C5.14 104.39 5.14 104.39 7.25 104.25 C8.49 104.17 9.73 104.08 11 104 C10.67 100.04 10.34 96.08 10 92 C0.22 91.59 0.22 91.59 -8.81 94.67 C-13.63 99.38 -15.03 103.4 -15.38 110.06 C-15.43 114.09 -15.43 114.09 -12.62 116.25 C-11.33 117.12 -11.33 117.12 -10 118 C-7.62 121.73 -7.79 124.55 -8.41 128.81 C-9.38 132.41 -10.95 133.92 -14 136 C-17.86 137.25 -21 137.42 -24.81 135.81 C-28.02 133.15 -29.63 131.2 -30.88 127.19 C-31.04 123.02 -30.08 120.6 -28 117 C-25.38 115.8 -25.38 115.8 -23 115 C-23.08 113.94 -23.16 112.88 -23.25 111.78 C-23.94 98.93 -23.94 98.93 -19.94 94.44 C-18.64 93.27 -17.33 92.12 -16 91 C-15.16 90.01 -15.16 90.01 -14.29 89.01 C-11.39 85.62 -9.19 83.63 -4.69 83 C0.24 82.8 5.12 83.34 10 84 C10 82.35 10 80.7 10 79 C9.26 78.76 8.53 78.53 7.77 78.29 C4.56 76.8 3.01 75.08 0.69 72.44 C-3.15 68.47 -3.15 68.47 -8.19 66.56 C-12.78 67.09 -13.57 68.21 -16.43 71.55 C-19.38 74.28 -22.07 74.06 -26 74 C-29.7 72.44 -32.05 70.51 -34 67 C-35.04 62.97 -35.24 60.7 -33.88 56.75 C-31.77 53.66 -30.46 52.41 -27 51 C-23.18 50.59 -20.74 50.69 -17.19 52.19 C-14.65 54.29 -14.1 55.96 -13 59 C-12.25 58.88 -11.5 58.77 -10.73 58.65 C-5.54 58.19 -2.29 58.05 2.02 61.23 C4.48 63.73 6.8 66.27 9 69 C9.08 67.76 9.16 66.53 9.25 65.25 C9.3 64.55 9.34 63.86 9.39 63.14 C9.19 60.8 9.19 60.8 6.99 59.15 C5 57 5 57 4.78 53.9 C4.83 52.74 4.88 51.57 4.94 50.38 C4.77 45.74 4.52 43.64 1.57 40 C-0.38 38.3 -2.38 36.66 -4.43 35.09 C-6.91 33.07 -7.99 31.98 -9 29 C-9.1 27.7 -9.21 26.4 -9.31 25.06 C-9.75 20.66 -11.64 18.86 -15 16 C-16.55 12.89 -16.29 10.44 -16 7 C-14.27 3.6 -12.93 1.58 -9.69 -0.44 C-6.1 -1.19 -3.56 -0.89 0 0 Z M-7 7 C-8.3 8.07 -8.3 8.07 -8.06 10.56 C-8.04 11.37 -8.02 12.17 -8 13 C-5.6 13.68 -5.6 13.68 -3 14 C-2.34 13.34 -1.68 12.68 -1 12 C-1.32 9.89 -1.32 9.89 -2 8 C-3.66 7.62 -5.32 7.29 -7 7 Z M131 7 C129.7 8.07 129.7 8.07 129.94 10.56 C129.96 11.37 129.98 12.17 130 13 C132.4 13.68 132.4 13.68 135 14 C135.66 13.34 136.32 12.68 137 12 C136.68 9.89 136.68 9.89 136 8 C134.34 7.62 132.68 7.29 131 7 Z M42 23 C36.1 30.58 35.7 37.75 36 47 C39.72 46.4 42.64 45.34 45.98 43.61 C46.92 43.15 47.86 42.69 48.82 42.21 C50.77 41.24 52.7 40.25 54.63 39.24 C62.65 35.35 62.65 35.35 67.61 36.94 C69.09 37.59 70.55 38.28 72 39 C73.58 39.68 75.16 40.36 76.75 41.04 C78.31 41.75 79.88 42.47 81.44 43.19 C83.02 43.91 84.6 44.64 86.18 45.36 C86.87 45.67 87.56 45.99 88.26 46.31 C90 47.12 90 47.12 92 47 C92.69 37.18 91.97 29.82 85.43 22.16 C78.56 15.63 70.49 14.42 61.29 14.64 C54.17 15.41 47.07 17.78 42 23 Z M56.38 47.38 C55.21 47.82 54.04 48.26 52.84 48.71 C49.81 50.63 49.81 50.63 49.66 53.16 C49.63 54.41 49.63 54.41 49.6 55.69 C49.38 61.32 47.29 63.69 43.32 67.52 C42.58 68.19 41.83 68.87 41.06 69.56 C40.32 70.27 39.58 70.98 38.81 71.71 C33.78 76.48 31.43 78.08 24.38 78.56 C23.19 78.65 22 78.73 20.77 78.82 C19.86 78.88 18.94 78.94 18 79 C18 80.65 18 82.3 18 84 C18.66 84.09 19.33 84.17 20.01 84.26 C20.89 84.4 21.78 84.54 22.69 84.69 C23.56 84.82 24.43 84.94 25.32 85.07 C29 86.35 30.61 87.93 33 91 C33.99 93.67 34.46 96.32 34.88 99.12 C35 99.84 35.13 100.56 35.27 101.29 C35.83 104.63 36.08 106.75 35 110 C28.55 111.34 28.55 111.34 26.24 109.93 C23.92 106.32 25.42 102.09 25.97 98.03 C26.27 95.06 26.27 95.06 24.84 93.09 C22.45 91.67 20.73 91.78 18 92 C18.97 102.34 20.89 111.38 25 121 C25.3 121.94 25.61 122.87 25.92 123.84 C27.28 126.96 28.07 128.2 31 130 C35.38 130.73 39.79 130.75 44.22 130.58 C49.2 130.46 52.2 130.61 56.1 133.89 C60.37 138.07 60.1 141.62 60.19 147.38 C60.18 148.14 60.17 148.91 60.17 149.7 C60.23 151.95 60.35 153.85 61 156 C63.88 158.6 63.88 158.6 67 160 C69.75 158.09 72.5 156.17 75.25 154.25 C76.03 153.71 76.8 153.17 77.61 152.62 C81.37 149.98 84.9 147.43 88 144 C86.56 143.95 85.13 143.91 83.69 143.88 C82.89 143.85 82.09 143.83 81.26 143.8 C78.72 143.84 78.72 143.84 76 146 C72.94 145.81 72.94 145.81 70 145 C68 142 68 142 68.19 138.94 C69 136 69 136 72 134 C77.56 134.56 77.56 134.56 79 136 C81.19 136.07 83.38 136.08 85.56 136.06 C86.76 136.05 87.96 136.04 89.19 136.04 C90.58 136.02 90.58 136.02 92 136 C92.01 135 92.03 134 92.04 132.96 C92.27 125.37 92.45 119.68 98 114 C101.28 111.81 102.83 111.65 106.69 111.38 C108.18 111.26 108.18 111.26 109.7 111.15 C110.46 111.1 111.22 111.05 112 111 C112.33 108.69 112.66 106.38 113 104 C112.19 103.97 111.38 103.95 110.55 103.92 C101.75 103.45 101.75 103.45 97.81 101.06 C93.96 96.68 94.7 91.91 94.48 86.29 C93.97 82.79 93.58 82.17 91 80 C90.2 76.6 89.68 74.07 90.69 70.69 C92.35 68.55 93.4 67.79 96 67 C99.04 67.19 101.22 67.56 103.88 69.06 C105.66 72.14 105.71 75.54 105 79 C104.5 79.44 104 79.88 103.49 80.34 C101.18 82.92 101.68 85.25 101.75 88.62 C101.77 90.38 101.77 90.38 101.8 92.16 C101.68 94.9 101.68 94.9 103 96 C104.85 96.07 106.71 96.08 108.56 96.06 C110.08 96.05 110.08 96.05 111.63 96.04 C112.41 96.02 113.19 96.01 114 96 C115.41 93.18 115.11 90.83 115.1 87.68 C115.09 86.42 115.09 85.17 115.09 83.87 C115.08 82.55 115.07 81.23 115.06 79.88 C115.06 78.54 115.05 77.2 115.05 75.86 C115.04 72.57 115.02 69.29 115 66 C113.84 65.51 112.67 65.01 111.47 64.5 C107.12 62.65 102.76 60.81 98.4 58.96 C96.53 58.16 94.65 57.36 92.77 56.56 C90.06 55.41 87.34 54.26 84.63 53.11 C83.8 52.76 82.97 52.41 82.12 52.05 C80.92 51.54 80.92 51.54 79.69 51.01 C78.92 50.69 78.14 50.36 77.35 50.02 C74.18 48.64 71.05 47.19 67.92 45.73 C63.67 44.11 60.4 45.76 56.38 47.38 Z M34.11 56.75 C33.18 57.11 32.24 57.47 31.27 57.84 C30.3 58.23 29.32 58.61 28.31 59 C27.32 59.38 26.34 59.76 25.32 60.16 C22.88 61.1 20.44 62.05 18 63 C18 65.64 18 68.28 18 71 C21.94 71.92 25.07 72.01 29 71 C34.06 67.54 38.24 62.8 42 58 C42 57.01 42 56.02 42 55 C38.83 55 37.05 55.61 34.11 56.75 Z M-26 59 C-26.68 61.4 -26.68 61.4 -27 64 C-26.34 64.66 -25.68 65.32 -25 66 C-22.4 65.68 -22.4 65.68 -20 65 C-19.96 63.33 -19.96 61.67 -20 60 C-21.07 58.7 -21.07 58.7 -23.56 58.94 C-24.37 58.96 -25.17 58.98 -26 59 Z M97 74 C97 74.66 97 75.32 97 76 C97.66 76 98.32 76 99 76 C99 75.34 99 74.68 99 74 C98.34 74 97.68 74 97 74 Z M148 75 C146.72 76.06 146.72 76.06 146.88 78.5 C146.72 80.94 146.72 80.94 148 82 C149.67 82.04 151.33 82.04 153 82 C153.68 79.6 153.68 79.6 154 77 C153.34 76.34 152.68 75.68 152 75 C150.68 75 149.36 75 148 75 Z M101.75 120.44 C99.19 124.18 99.66 127.59 100 132 C103.68 128.72 105.75 125.34 108 121 C108 120.34 108 119.68 108 119 C104.12 118.64 104.12 118.64 101.75 120.44 Z M-22 122 C-22.68 124.4 -22.68 124.4 -23 127 C-22.34 127.66 -21.68 128.32 -21 129 C-18.4 128.68 -18.4 128.68 -16 128 C-15.96 126.33 -15.96 124.67 -16 123 C-17.07 121.7 -17.07 121.7 -19.56 121.94 C-20.37 121.96 -21.17 121.98 -22 122 Z M39 138 C42.98 143.27 47.58 147.22 53 151 C53.33 151 53.66 151 54 151 C54.52 145.17 54.52 145.17 52.12 140 C47.75 137.2 44.06 137.56 39 138 Z M138 147 C137.96 148.67 137.96 150.33 138 152 C139.07 153.3 139.07 153.3 141.56 153.06 C142.37 153.04 143.17 153.02 144 153 C144.68 150.6 144.68 150.6 145 148 C144.34 147.34 143.68 146.68 143 146 C140.07 145.78 140.07 145.78 138 147 Z " fill="#12C4D3" transform="translate(36,16)"/>
<path d="M0 0 C3.94 2.57 6.75 5.62 8.88 9.88 C8.95 12.08 8.96 14.29 8.94 16.5 C8.93 17.69 8.92 18.88 8.91 20.1 C8.9 21.02 8.89 21.93 8.88 22.88 C9.82 22.98 10.77 23.08 11.75 23.19 C14.88 23.88 14.88 23.88 16.88 26.88 C17.08 29.51 17.18 32.04 17.18 34.68 C17.18 35.45 17.18 36.21 17.19 37 C17.19 38.61 17.2 40.22 17.19 41.84 C17.19 44.3 17.21 46.76 17.24 49.23 C17.24 50.8 17.24 52.37 17.24 53.93 C17.25 54.67 17.26 55.4 17.27 56.16 C17.24 59.1 16.99 61.58 15.94 64.34 C12.47 66.92 8.7 66.42 4.5 66.37 C3.12 66.37 3.12 66.37 1.71 66.38 C-0.24 66.37 -2.18 66.36 -4.13 66.34 C-7.11 66.31 -10.1 66.32 -13.08 66.33 C-14.97 66.33 -16.86 66.32 -18.75 66.31 C-20.09 66.31 -20.09 66.31 -21.46 66.32 C-22.29 66.3 -23.12 66.29 -23.98 66.28 C-24.71 66.27 -25.44 66.27 -26.19 66.26 C-28.71 65.76 -29.6 64.92 -31.12 62.88 C-31.44 60.12 -31.57 57.6 -31.56 54.85 C-31.56 54.06 -31.57 53.28 -31.57 52.47 C-31.58 50.81 -31.58 49.15 -31.57 47.49 C-31.56 44.95 -31.59 42.41 -31.62 39.88 C-31.62 38.26 -31.62 36.65 -31.62 35.04 C-31.63 34.28 -31.64 33.52 -31.66 32.74 C-31.61 29.27 -31.37 27.23 -29.34 24.36 C-27.12 22.88 -27.12 22.88 -23.12 22.88 C-23.17 22.01 -23.22 21.14 -23.27 20.24 C-23.56 10.83 -23.56 10.83 -21.5 6.31 C-15.33 -0.02 -8.68 -3.12 0 0 Z M-13.62 9.75 C-15.8 14.29 -15.39 17.87 -15.12 22.88 C-9.84 22.88 -4.56 22.88 0.88 22.88 C1.48 15.74 1.48 15.74 -0.62 9.19 C-5.25 6.76 -9.39 6.57 -13.62 9.75 Z M-10.31 36 C-12.43 37.81 -12.43 37.81 -12.5 40.94 C-12.41 43.99 -12.41 43.99 -10.12 45.88 C-10.15 48.48 -10.15 48.48 -10.5 51.5 C-10.61 52.5 -10.72 53.51 -10.84 54.54 C-10.93 55.31 -11.03 56.08 -11.12 56.88 C-8.48 56.88 -5.84 56.88 -3.12 56.88 C-3.14 56.09 -3.15 55.31 -3.16 54.5 C-3.17 53.49 -3.18 52.48 -3.19 51.44 C-3.2 50.43 -3.21 49.42 -3.22 48.38 C-3.12 45.88 -3.12 45.88 -2.12 44.88 C-1.8 40.84 -1.8 40.84 -2.12 36.88 C-5.48 34.64 -6.71 34.15 -10.31 36 Z " fill="#11C8D7" transform="translate(107.125,77.125)"/>
<path d="M0 0 C0.66 0 1.32 0 2 0 C1.49 2.28 0.88 4.28 -0.06 6.44 C-1.05 9.14 -1.16 11.15 -1 14 C-3.11 10.83 -3.25 10.49 -2.75 7 C-2.66 6.32 -2.57 5.64 -2.48 4.94 C-2 3 -2 3 0 0 Z " fill="#18B0BB" transform="translate(169,157)"/>
</svg>
